<mxfile host="Electron" agent="Mozilla/5.0 (X11; Linux x86_64) AppleWebKit/537.36 (KHTML, like Gecko) draw.io/26.1.1 Chrome/132.0.6834.210 Electron/34.3.3 Safari/537.36" version="26.1.1">
  <diagram name="Page-1" id="O0-r-qOWnXZtdRiAiAoM">
    <mxGraphModel dx="819" dy="479" grid="1" gridSize="10" guides="1" tooltips="1" connect="1" arrows="1" fold="1" page="1" pageScale="1" pageWidth="850" pageHeight="1100" math="0" shadow="0">
      <root>
        <mxCell id="0" />
        <mxCell id="1" parent="0" />
        <mxCell id="6w9vV50zreiQ40VYaKrL-4" style="edgeStyle=orthogonalEdgeStyle;rounded=0;orthogonalLoop=1;jettySize=auto;html=1;entryX=0;entryY=0.25;entryDx=0;entryDy=0;" edge="1" parent="1" source="6w9vV50zreiQ40VYaKrL-1" target="6w9vV50zreiQ40VYaKrL-3">
          <mxGeometry relative="1" as="geometry" />
        </mxCell>
        <mxCell id="6w9vV50zreiQ40VYaKrL-1" value="&lt;b&gt;Challenge&lt;/b&gt;&lt;div&gt;&lt;font style=&quot;color: rgb(255, 0, 0);&quot;&gt;NPO8DyMd8u85ssgK&lt;/font&gt;&lt;/div&gt;" style="rounded=0;whiteSpace=wrap;html=1;" vertex="1" parent="1">
          <mxGeometry x="130" y="220" width="150" height="80" as="geometry" />
        </mxCell>
        <mxCell id="6w9vV50zreiQ40VYaKrL-5" style="edgeStyle=orthogonalEdgeStyle;rounded=0;orthogonalLoop=1;jettySize=auto;html=1;entryX=0;entryY=0.75;entryDx=0;entryDy=0;" edge="1" parent="1" source="6w9vV50zreiQ40VYaKrL-2" target="6w9vV50zreiQ40VYaKrL-3">
          <mxGeometry relative="1" as="geometry" />
        </mxCell>
        <mxCell id="6w9vV50zreiQ40VYaKrL-2" value="&lt;b&gt;Nonce (client generated)&lt;/b&gt;&lt;br&gt;&lt;div&gt;&lt;font style=&quot;color: rgb(0, 0, 255);&quot;&gt;1066074&lt;/font&gt;&lt;/div&gt;" style="rounded=0;whiteSpace=wrap;html=1;" vertex="1" parent="1">
          <mxGeometry x="130" y="320" width="150" height="80" as="geometry" />
        </mxCell>
        <mxCell id="6w9vV50zreiQ40VYaKrL-7" style="edgeStyle=orthogonalEdgeStyle;rounded=0;orthogonalLoop=1;jettySize=auto;html=1;exitX=1;exitY=0.5;exitDx=0;exitDy=0;entryX=0;entryY=0.5;entryDx=0;entryDy=0;" edge="1" parent="1" source="6w9vV50zreiQ40VYaKrL-3" target="6w9vV50zreiQ40VYaKrL-6">
          <mxGeometry relative="1" as="geometry" />
        </mxCell>
        <mxCell id="6w9vV50zreiQ40VYaKrL-3" value="&lt;div style=&quot;text-align: start;&quot;&gt;&lt;b style=&quot;background-color: transparent; color: light-dark(rgb(0, 0, 0), rgb(255, 255, 255));&quot;&gt;SHA256(&lt;/b&gt;&lt;span style=&quot;background-color: transparent; text-align: center;&quot;&gt;&lt;font style=&quot;color: light-dark(rgb(255, 0, 0), rgb(255, 255, 255));&quot;&gt;NPO8DyMd8u85ssgK&lt;/font&gt;&lt;/span&gt;&lt;font style=&quot;color: rgb(0, 0, 255);&quot;&gt;&lt;span style=&quot;background-color: transparent; text-align: center;&quot;&gt;1066074&lt;/span&gt;&lt;span style=&quot;background-color: transparent; text-wrap-mode: nowrap; font-family: monospace; font-size: 0px; color: light-dark(rgb(255, 0, 0), rgb(255, 255, 255));&quot;&gt;%3CmxGraphModel%3E%3Croot%3E%3CmxCell%20id%3D%220%22%2F%3E%3CmxCell%20id%3D%221%22%20parent%3D%220%22%2F%3E%3CmxCell%20id%3D%222%22%20value%3D%22%26lt%3Bb%26gt%3BChallenge%26lt%3B%2Fb%26gt%3B%26lt%3Bdiv%26gt%3BNPO8DyMd8u85ssgK%26lt%3B%2Fdiv%26gt%3B%22%20style%3D%22rounded%3D0%3BwhiteSpace%3Dwrap%3Bhtml%3D1%3B%22%20vertex%3D%221%22%20parent%3D%221%22%3E%3CmxGeometry%20x%3D%22130%22%20y%3D%22220%22%20width%3D%22150%22%20height%3D%2280%22%20as%3D%22geometry%22%2F%3E%3C%2FmxCell%3E%3C%2Froot%3E%3C%2FmxGraphModel%3E&lt;/span&gt;&lt;span style=&quot;background-color: transparent; text-wrap-mode: nowrap; font-size: 0px;&quot;&gt;&lt;font style=&quot;color: light-dark(rgb(255, 0, 0), rgb(255, 255, 255));&quot; face=&quot;monospace&quot;&gt;%3CmxGraphModel%3E%3Croot%3E%3CmxCell%20id%3D%220%22%2F%3E%3CmxCell%20id%3D%221%22%20parent%3D%220%22%2F%3E%3CmxCell%20id%3D%222%22%20value%3D%22%26lt%3Bb%26gt%3BChallenge%26lt%3B%2Fb%26gt%3B%26lt%3Bdiv%26gt%3BNPO8DyMd8u85ssgK%26lt%3B%2Fdiv%26gt%3B%22%20style%3D%22rounded%3D0%3BwhiteSpace%3Dwrap%3Bhtml%3D1%3B%22%20vertex%3D%221%22%20parent%3D%221%22%3E%3CmxGeometry%20x%3D%22130%22%20y%3D%22220%22%20width%3D%22150%22%20height%3D%2280%22%20as%3D%22geometry%22%2F%3E%3C%2FmxCell%3E%3C%2Froot%3E%3C%2FmxGraphModel%3E&lt;/font&gt;&lt;/span&gt;&lt;/font&gt;&lt;b style=&quot;background-color: transparent; color: light-dark(rgb(0, 0, 0), rgb(255, 255, 255));&quot;&gt;)&lt;/b&gt;&lt;/div&gt;" style="rounded=0;whiteSpace=wrap;html=1;" vertex="1" parent="1">
          <mxGeometry x="340" y="280" width="250" height="80" as="geometry" />
        </mxCell>
        <mxCell id="6w9vV50zreiQ40VYaKrL-6" value="&lt;div style=&quot;text-align: start;&quot;&gt;&lt;b&gt;000003e7cc8e1cf8 ...&lt;/b&gt;&lt;/div&gt;" style="rounded=0;whiteSpace=wrap;html=1;" vertex="1" parent="1">
          <mxGeometry x="620" y="280" width="170" height="80" as="geometry" />
        </mxCell>
        <mxCell id="6w9vV50zreiQ40VYaKrL-8" value="" style="verticalLabelPosition=bottom;verticalAlign=top;html=1;shape=mxgraph.basic.tick;fillColor=#008a00;fontColor=#ffffff;strokeColor=light-dark(#000000, #82cd82);" vertex="1" parent="1">
          <mxGeometry x="760" y="330" width="20" height="23.53" as="geometry" />
        </mxCell>
      </root>
    </mxGraphModel>
  </diagram>
</mxfile>
